# xmcd
#
# Track frame offsets: 
#        182
#        13115
#        27320
#        42670
#        51945
#        68357
#        78920
#        89732
#        109007
#        120770
#        133445
#        146220
#        156395
#        166395
#
# Disc length: 2362 seconds
#
# Revision: 5
# Processed by: cddbd v1.5.2PL0 Copyright (c) Steve Scherf et al.
# Submitted via: ExactAudioCopyFreeDBPlugin 1.0
#
DISCID=c309380e
DTITLE=J.J. CALE - Special Edition
DYEAR=1984
DGENRE=Blues
TTITLE0=Cocaine  (1976)
TTITLE1=Don't wait  (1982)
TTITLE2=Magnolia  (1972)
TTITLE3=Devil in disguise  (1982)
TTITLE4=Sensitive kind  (1979)
TTITLE5=Carry on  (1980)
TTITLE6=After midnight  (1972)
TTITLE7=Money talks  (1983)
TTITLE8=Call me the breeze  (1972)
TTITLE9=Lies  (1972)
TTITLE10=City girls  (1982)
TTITLE11=Cajun mMoon  (1974)
TTITLE12=Don't cry sister  (1979)
TTITLE13=Crazy mama  (1972)
EXTD=YEAR: 1984
EXTT0=
EXTT1=
EXTT2=
EXTT3=
EXTT4=
EXTT5=
EXTT6=
EXTT7=
EXTT8=
EXTT9=
EXTT10=
EXTT11=
EXTT12=
EXTT13=
PLAYORDER=
